<svg width="15" height="25" viewBox="0 0 15 25" fill="none" xmlns="http://www.w3.org/2000/svg">
<path d="M13.8071 24.3913C14.1586 24.0397 14.3561 23.5629 14.3561 23.0657C14.3561 22.5685 14.1586 22.0917 13.8071 21.7401L4.52585 12.4588L13.8071 3.17758C14.1486 2.82395 14.3376 2.35032 14.3334 1.8587C14.3291 1.36708 14.1319 0.89681 13.7843 0.54917C13.4366 0.20153 12.9663 0.00434007 12.4747 6.80326e-05C11.9831 -0.004204 11.5095 0.184785 11.1558 0.526332L0.548974 11.1332C0.197466 11.4848 0 11.9616 0 12.4588C0 12.956 0.197466 13.4328 0.548974 13.7845L11.1558 24.3913C11.5075 24.7428 11.9843 24.9403 12.4815 24.9403C12.9787 24.9403 13.4555 24.7428 13.8071 24.3913V24.3913Z" fill="#F2785C" fill-opacity="0.5"/>
</svg>
