<svg width="15" height="25" viewBox="0 0 15 25" fill="none" xmlns="http://www.w3.org/2000/svg">
<path d="M1.1929 0.608667C0.841393 0.960282 0.643926 1.43711 0.643926 1.93429C0.643926 2.43147 0.841393 2.9083 1.1929 3.25992L10.4742 12.5412L1.1929 21.8224C0.851354 22.176 0.662365 22.6497 0.666637 23.1413C0.670909 23.6329 0.868101 24.1032 1.21574 24.4508C1.56338 24.7985 2.03365 24.9957 2.52527 24.9999C3.01689 25.0042 3.49052 24.8152 3.84415 24.4737L14.451 13.8668C14.8025 13.5152 15 13.0384 15 12.5412C15 12.044 14.8025 11.5672 14.451 11.2155L3.84415 0.608667C3.49254 0.257159 3.01571 0.0596924 2.51853 0.0596924C2.02134 0.0596924 1.54452 0.257159 1.1929 0.608667V0.608667Z" fill="#F2785C"/>
</svg>
