<svg width="30" height="30" viewBox="0 0 30 30" fill="none" xmlns="http://www.w3.org/2000/svg">
<path d="M21.8071 27.3913C22.1586 27.0397 22.3561 26.5629 22.3561 26.0657C22.3561 25.5685 22.1586 25.0917 21.8071 24.7401L12.5258 15.4588L21.8071 6.17758C22.1486 5.82395 22.3376 5.35032 22.3334 4.8587C22.3291 4.36708 22.1319 3.89681 21.7843 3.54917C21.4366 3.20153 20.9663 3.00434 20.4747 3.00007C19.9831 2.9958 19.5095 3.18479 19.1559 3.52633L8.54897 14.1332C8.19747 14.4848 8 14.9616 8 15.4588C8 15.956 8.19747 16.4328 8.54897 16.7845L19.1558 27.3913C19.5075 27.7428 19.9843 27.9403 20.4815 27.9403C20.9787 27.9403 21.4555 27.7428 21.8071 27.3913V27.3913Z" fill="#F2785C"/>
</svg>
